<?xml version="1.0" standalone="no"?>
<!DOCTYPE svg PUBLIC "-//W3C//DTD SVG 20010904//EN"
 "http://www.w3.org/TR/2001/REC-SVG-20010904/DTD/svg10.dtd">
<svg version="1.0" xmlns="http://www.w3.org/2000/svg"
 width="1320.000000pt" height="1000.000000pt" viewBox="0 0 1320.000000 1000.000000"
 preserveAspectRatio="xMidYMid meet">

<g transform="translate(0.000000,1000.000000) scale(0.100000,-0.100000)"
fill="#000000" stroke="none">
<path d="M5702 4984 l-242 -484 485 0 485 0 -241 483 c-133 265 -242 483 -243
484 -1 1 -111 -216 -244 -483z m340 -242 c-96 -1 -177 0 -181 3 -3 4 3 23 14
43 l20 37 93 3 c50 1 92 5 92 8 0 2 -30 64 -66 137 l-67 132 -108 -215 c-59
-118 -108 -218 -108 -222 -1 -5 118 -8 264 -8 l265 0 20 -40 20 -40 -355 0
c-195 0 -355 2 -355 5 0 3 79 164 176 357 l176 353 138 -275 138 -275 -176 -3z"/>
<path d="M6855 5461 c-86 -21 -184 -98 -228 -178 -94 -174 -61 -485 63 -583
66 -52 126 -73 224 -78 102 -5 106 -3 106 75 l0 51 -96 4 -95 3 -39 41 c-49
53 -80 148 -80 248 0 189 94 295 254 284 l51 -3 3 63 c3 59 2 63 -23 72 -30
11 -95 12 -140 1z"/>
<path d="M8493 5454 c-13 -30 -7 -824 5 -836 8 -8 31 -8 74 -2 l63 9 0 412 c0
226 -2 414 -5 416 -3 3 -33 9 -67 12 -56 7 -64 5 -70 -11z"/>
<path d="M8921 5459 c-46 -14 -124 -94 -139 -145 -15 -51 -16 -123 -1 -161 5
-15 60 -77 121 -137 60 -61 114 -121 119 -134 29 -76 -7 -141 -83 -149 -39 -5
-55 -1 -94 22 -45 26 -48 27 -60 10 -16 -21 -29 -99 -20 -114 11 -17 106 -41
165 -41 79 0 126 16 171 56 52 47 73 106 68 188 -5 83 -47 148 -152 237 -111
95 -143 173 -91 224 28 29 72 32 117 9 36 -18 40 -15 62 51 19 58 12 71 -50
85 -48 12 -89 11 -133 -1z"/>
<path d="M9303 5459 c-10 -10 -13 -109 -13 -425 0 -408 0 -413 21 -419 27 -9
122 5 131 19 9 13 -2 808 -11 818 -13 15 -116 20 -128 7z"/>
<path d="M9843 5456 c-59 -19 -103 -49 -157 -106 -164 -176 -159 -472 12 -638
77 -76 135 -97 261 -96 68 1 95 5 102 15 5 8 8 104 6 214 l-2 200 -107 3
c-106 3 -108 2 -114 -21 -3 -14 -4 -37 -2 -53 3 -28 10 -33 76 -50 8 -2 12
-29 12 -89 l0 -85 -31 0 c-78 0 -133 59 -163 175 -35 132 -13 266 55 340 52
57 92 69 191 62 l78 -6 0 64 c0 53 -3 66 -19 75 -27 14 -147 11 -198 -4z"/>
<path d="M10570 5462 c-19 -2 -38 -9 -42 -15 -4 -7 -8 -85 -8 -175 l0 -163
-92 3 -93 3 0 170 0 170 -72 3 -73 3 0 -419 0 -420 23 -6 c38 -10 105 -7 114
7 4 6 8 86 8 177 l0 165 95 0 95 0 3 -177 2 -178 64 0 c49 0 65 4 70 16 9 23
7 822 -1 827 -16 9 -59 13 -93 9z"/>
<path d="M7357 5446 c-42 -16 -56 -25 -110 -75 -82 -76 -113 -184 -104 -363 5
-129 23 -195 70 -264 64 -95 186 -148 288 -127 l50 10 55 -64 c31 -35 59 -63
64 -63 5 0 25 16 45 34 l37 35 -51 61 -51 61 28 42 c62 91 87 202 79 354 -3
64 -12 130 -23 161 -22 68 -90 145 -158 179 -62 32 -162 40 -219 19z m188
-149 c52 -54 75 -124 82 -243 11 -187 -57 -304 -177 -304 -125 0 -188 112
-177 314 7 128 21 170 78 229 43 45 48 47 99 47 50 0 56 -3 95 -43z"/>
<path d="M7887 5453 c-11 -10 -8 -581 3 -648 20 -124 104 -190 241 -190 67 0
81 4 124 30 35 21 56 45 74 79 25 48 25 54 34 378 6 249 5 333 -4 344 -17 21
-125 19 -133 -2 -3 -9 -6 -138 -6 -287 0 -288 -6 -334 -45 -373 -29 -29 -84
-32 -108 -6 -37 40 -40 70 -38 380 l1 302 -68 0 c-38 0 -72 -3 -75 -7z"/>
<path d="M10794 5446 c-3 -7 -4 -35 -2 -62 l3 -49 68 -3 c55 -2 67 -6 68 -20
1 -9 2 -170 2 -357 l2 -340 59 -3 c41 -2 62 1 67 10 5 7 9 167 9 354 0 386 -8
354 86 354 48 0 54 2 60 23 3 13 4 41 2 63 l-3 39 -208 3 c-170 2 -208 0 -213
-12z"/>
</g>
</svg>
